<svg width="131" height="16" viewBox="0 0 131 16" fill="none" xmlns="http://www.w3.org/2000/svg">
<path d="M4.4257 9.66755L4.42571 9.66755L4.42642 9.66693C4.87882 9.26982 5.09994 8.72803 5.09994 8.05564C5.09994 7.39632 4.88637 6.8794 4.44093 6.53266C4.00263 6.19148 3.36295 6.03359 2.54764 6.03359H0.887695H0.737695V6.18359V12.8049V12.9549H0.887695H1.42718H1.57718V12.8049V10.2483H2.40931C3.28884 10.2483 3.97198 10.0608 4.4257 9.66755ZM3.84092 7.12434L3.84092 7.12435L3.84238 7.12542C4.10105 7.3146 4.24202 7.62588 4.24202 8.08792C4.24202 8.63857 4.07339 8.97934 3.77392 9.16363C3.44707 9.36477 2.98034 9.47336 2.35398 9.47336H1.57718V6.80391H2.49231C3.12965 6.80391 3.56559 6.91784 3.84092 7.12434Z" fill="white" stroke="white" stroke-width="0.3"/>
<path d="M6.93479 12.7084L6.93525 12.7087C7.29055 12.9338 7.71604 13.0455 8.20056 13.0455C8.70247 13.0455 9.13773 12.9343 9.49861 12.7037C9.85688 12.4749 10.1293 12.1517 10.3111 11.7439C10.4919 11.3383 10.5823 10.8649 10.5823 10.3272C10.5823 9.80389 10.4966 9.33556 10.3209 8.93033C10.144 8.52242 9.87632 8.19887 9.52247 7.96961C9.1662 7.73879 8.73992 7.62734 8.24206 7.62734C7.50199 7.62734 6.90439 7.86595 6.47427 8.35589C6.04188 8.84313 5.8373 9.50523 5.8373 10.3272C5.8373 10.8661 5.93273 11.3396 6.11807 11.7493C6.30462 12.1616 6.577 12.4798 6.93479 12.7084ZM9.57612 9.29355L9.5761 9.29355L9.57678 9.29539C9.68458 9.58861 9.73817 9.93 9.73817 10.3272C9.73817 10.9383 9.60886 11.4134 9.36311 11.7735C9.13032 12.1146 8.759 12.2936 8.2144 12.2936C7.67535 12.2936 7.30706 12.1152 7.06913 11.7764C6.82022 11.422 6.69062 10.9436 6.69062 10.3272C6.69062 9.69155 6.82513 9.21687 7.08339 8.88364L7.08339 8.88364L7.08394 8.88292C7.3357 8.55401 7.70667 8.38383 8.23284 8.38383C8.60379 8.38383 8.89139 8.46682 9.09731 8.62126C9.31146 8.78188 9.47448 9.00557 9.57612 9.29355Z" fill="white" stroke="white" stroke-width="0.3"/>
<path d="M15.8532 11.5502C15.8001 11.351 15.7396 11.1485 15.6755 10.9434L15.6752 10.9426L14.6839 7.82563L14.6506 7.72109H14.5409H13.9968H13.8884L13.8544 7.8241L12.8263 10.9407C12.8263 10.9407 12.8262 10.9408 12.8262 10.9409C12.7492 11.1719 12.6833 11.3853 12.6328 11.5802C12.5827 11.377 12.5201 11.1404 12.4496 10.8757L12.4496 10.8757L12.4493 10.8749L11.6194 7.83163L11.5892 7.72109H11.4746H10.9121H10.7136L10.7678 7.91209L12.1695 12.8458L12.2005 12.9548H12.3138H12.8856H12.9944L13.0282 12.8514L14.0748 9.65144L14.0749 9.65145L14.0752 9.65029C14.1402 9.44622 14.2008 9.24557 14.2524 9.05348L14.2524 9.05349L14.2532 9.05015C14.2533 9.05003 14.2533 9.0499 14.2533 9.04978C14.3004 9.23769 14.3612 9.43834 14.4307 9.64249L15.4493 12.8502L15.4825 12.9548H15.5922H16.1732H16.2875L16.3178 12.8446L17.6735 7.91084L17.7256 7.72109H17.5288H16.9847H16.8695L16.8398 7.83244L16.0286 10.8745C15.9571 11.1268 15.9009 11.3523 15.8532 11.5502Z" fill="white" stroke="white" stroke-width="0.3"/>
<path d="M19.3144 11.8049C19.0604 11.5168 18.9154 11.1033 18.8937 10.5464H22.2912H22.4412V10.3964V10.0367C22.4412 9.58167 22.3646 9.17356 22.2076 8.8106C22.0502 8.4465 21.8209 8.15542 21.509 7.94396C21.1972 7.72943 20.8106 7.62734 20.3639 7.62734C19.878 7.62734 19.4545 7.74432 19.1021 7.99106C18.7557 8.23351 18.4894 8.56005 18.3082 8.97627C18.1283 9.38951 18.0375 9.85293 18.0375 10.3733C18.0375 11.1789 18.2477 11.8307 18.6742 12.3166L18.6748 12.3173C19.1108 12.8085 19.7277 13.0455 20.5068 13.0455C20.8338 13.0455 21.1198 13.0171 21.3738 12.9691C21.6324 12.9203 21.8881 12.8331 22.1447 12.719L22.2338 12.6794V12.582V12.0978V11.8713L22.0252 11.9597C21.7582 12.0728 21.5138 12.1568 21.2953 12.2049C21.0771 12.2529 20.8207 12.2798 20.5253 12.2798C19.9815 12.2798 19.5886 12.116 19.3144 11.8049ZM19.3582 8.77829C19.608 8.50799 19.9353 8.36999 20.3546 8.36999C20.7822 8.36999 21.0816 8.51561 21.2738 8.79016C21.4567 9.05138 21.5643 9.38992 21.5845 9.81755H18.9249C18.9822 9.36419 19.1322 9.02281 19.3582 8.77829Z" fill="white" stroke="white" stroke-width="0.3"/>
<path d="M26.5022 7.88772L26.5253 7.75023L26.3899 7.71713C26.1685 7.66301 25.9349 7.63906 25.681 7.63906C25.2804 7.63906 24.9335 7.74347 24.6451 7.96467C24.4956 8.07692 24.3672 8.20389 24.2595 8.34387L24.2308 7.86764L24.2223 7.72667H24.081H23.6338H23.4838V7.87667V12.8104V12.9604H23.6338H24.1687H24.3187V12.8104V10.1038C24.3187 9.57436 24.4463 9.16818 24.6866 8.86991L24.6866 8.86991L24.6873 8.86912C24.9241 8.57105 25.2391 8.42321 25.6534 8.42321C25.8524 8.42321 26.0463 8.44917 26.2309 8.50069L26.3915 8.5455L26.4192 8.38109L26.5022 7.88772Z" fill="white" stroke="white" stroke-width="0.3"/>
<path d="M27.9648 11.8049C27.7108 11.5168 27.5658 11.1033 27.5441 10.5464H30.9416H31.0916V10.3964V10.0367C31.0916 9.58167 31.0149 9.17356 30.858 8.8106C30.7005 8.4465 30.4713 8.15542 30.1594 7.94396C29.8476 7.72943 29.461 7.62734 29.0143 7.62734C28.5284 7.62734 28.1049 7.74432 27.7524 7.99106C27.4061 8.23351 27.1397 8.56005 26.9586 8.97627C26.7787 9.38951 26.6879 9.85293 26.6879 10.3733C26.6879 11.1789 26.8981 11.8307 27.3246 12.3166L27.3251 12.3173C27.7612 12.8085 28.3781 13.0455 29.1572 13.0455C29.4842 13.0455 29.7701 13.0171 30.0242 12.9691C30.2828 12.9203 30.5384 12.8331 30.7951 12.719L30.8841 12.6794V12.582V12.0978V11.8713L30.6756 11.9597C30.4086 12.0728 30.1642 12.1568 29.9457 12.2049C29.7275 12.2529 29.4711 12.2798 29.1756 12.2798C28.6319 12.2798 28.239 12.116 27.9648 11.8049ZM28.0086 8.77829C28.2584 8.50799 28.5857 8.36999 29.005 8.36999C29.4369 8.36999 29.7319 8.51539 29.9242 8.79016C30.1071 9.05138 30.2147 9.38992 30.2349 9.81755H27.5753C27.6325 9.36419 27.7826 9.02281 28.0086 8.77829Z" fill="white" stroke="white" stroke-width="0.3"/>
<path d="M35.2158 7.92809L35.2158 7.9281C35.3531 8.02617 35.474 8.13455 35.5788 8.25323L35.2158 7.92809ZM35.2158 7.92809L35.2143 7.92707C34.9243 7.72507 34.5505 7.62811 34.1142 7.62811C33.4126 7.62811 32.847 7.86885 32.4411 8.34997C32.0364 8.8296 31.8432 9.51509 31.8432 10.3833C31.8432 11.2272 32.0266 11.8948 32.4179 12.3566C32.8074 12.8217 33.3655 13.0463 34.0681 13.0463C34.5293 13.0463 34.9186 12.9505 35.2107 12.742C35.3713 12.6293 35.5106 12.5011 35.6269 12.3574L35.6662 12.8168L35.6779 12.9541H35.8156H36.2445H36.3945V12.804V5.75391V5.60391H36.2445H35.7142H35.5642V5.75391V7.74584C35.5642 7.901 35.5689 8.06501 35.5782 8.24238L35.2158 7.92809ZM35.2367 11.8368L35.2366 11.8368L35.2354 11.8387C35.0335 12.1337 34.6801 12.2944 34.1373 12.2944C33.633 12.2944 33.2871 12.1328 33.0638 11.8298L33.0638 11.8298L33.063 11.8287C32.8277 11.515 32.7011 11.0452 32.7011 10.3925C32.7011 9.71693 32.8322 9.21898 33.082 8.88181L33.082 8.88181L33.0827 8.88084C33.322 8.55239 33.6789 8.37999 34.1741 8.37999C34.6917 8.37999 35.0339 8.55005 35.2387 8.85691C35.4556 9.1866 35.5734 9.67393 35.5734 10.3372V10.4202C35.5734 11.0604 35.4555 11.5271 35.2367 11.8368Z" fill="white" stroke="white" stroke-width="0.3"/>
<path d="M40.7029 12.9587H40.835L40.8517 12.8276L40.9076 12.3882C41.0278 12.5344 41.1749 12.6626 41.3452 12.7731C41.6397 12.9643 42.0122 13.0509 42.4505 13.0509C43.1714 13.0509 43.7397 12.8001 44.1323 12.2917C44.5179 11.7923 44.7031 11.1343 44.7031 10.3326C44.7031 9.47523 44.5198 8.7984 44.1285 8.33187C43.7367 7.86476 43.1989 7.63272 42.5242 7.63272C42.0743 7.63272 41.6837 7.72956 41.3671 7.93888C41.2162 8.0387 41.0843 8.1515 40.9728 8.27684C40.9731 8.26407 40.9734 8.25135 40.9737 8.23867C40.978 8.05149 40.982 7.87397 40.982 7.70434V5.75391V5.60391H40.832H40.3018H40.1518V5.75391V12.8087V12.9587H40.3018H40.7029ZM41.3373 8.85591L41.3373 8.85591L41.3381 8.85485C41.5502 8.54838 41.9101 8.37999 42.4597 8.37999C42.9363 8.37999 43.2719 8.5389 43.4945 8.84115C43.7236 9.152 43.8497 9.63644 43.8497 10.3187C43.8497 10.9843 43.7189 11.4689 43.4733 11.8021L43.4733 11.802L43.4725 11.803C43.2383 12.1261 42.8866 12.2944 42.3951 12.2944C41.8692 12.2944 41.5233 12.131 41.3201 11.834C41.1046 11.5191 40.9866 11.0468 40.9866 10.3925V10.328C40.9866 9.66035 41.109 9.17967 41.3373 8.85591Z" fill="white" stroke="white" stroke-width="0.3"/>
<path d="M44.9082 7.72109H44.6876L44.7687 7.92624L46.6884 12.7824L46.3915 13.5528C46.3914 13.5528 46.3914 13.5529 46.3914 13.553C46.2661 13.875 46.1283 14.1017 45.984 14.2419C45.8503 14.3719 45.6779 14.4393 45.4477 14.4393C45.3556 14.4393 45.2713 14.4309 45.1898 14.418L45.1666 14.5649L45.1898 14.418C45.1126 14.4058 45.0376 14.3852 44.9668 14.3631L44.772 14.3022V14.5063V14.9535V15.0561L44.8677 15.0933C44.9658 15.1315 45.066 15.152 45.1683 15.1666C45.2751 15.1818 45.3891 15.1865 45.5122 15.1865C45.9352 15.1865 46.2907 15.0611 46.5554 14.7911C46.8051 14.5364 47.0126 14.1796 47.1875 13.7307L47.1876 13.7303L49.4285 7.92511L49.5073 7.72109H49.2886H48.7168H48.613L48.5764 7.81833L47.4191 10.8984L47.4191 10.8984L47.4183 10.9006C47.2977 11.2371 47.1954 11.5288 47.1128 11.7762C47.0961 11.7256 47.0786 11.6739 47.0603 11.6212C46.9863 11.4087 46.8984 11.1589 46.7966 10.8811L46.7966 10.8811L46.7956 10.8786L45.6106 7.81695L45.5735 7.72109H45.4707H44.9082Z" fill="white" stroke="white" stroke-width="0.3"/>
<path d="M79.1535 3.99635L74.146 1.10529C73.7956 0.902405 73.2146 0.902405 72.8642 1.10529L59.0498 9.07762L66.6947 3.21249L63.0475 1.1099C62.697 0.907016 62.116 0.907016 61.7656 1.1099L56.7581 4.00096C56.4077 4.20385 56.1172 4.70644 56.1172 5.1122V10.8897C56.1172 11.3001 56.4077 11.7981 56.7581 12.001L61.7656 14.892C62.116 15.0949 62.697 15.0949 63.0475 14.892L76.8619 6.9197L69.2169 12.7848L72.8642 14.8874C73.2146 15.0903 73.7956 15.0903 74.146 14.8874L79.1535 11.9964C79.5039 11.7935 79.7944 11.2909 79.7944 10.8851V5.10759C79.7944 4.70183 79.5085 4.20385 79.1535 3.99635Z" fill="white"/>
<path d="M86.5273 14.644V2.37891H88.2196V13.127H94.3798V14.644H86.5273Z" fill="white"/>
<path d="M99.6408 14.8065C98.7647 14.8065 97.9901 14.6174 97.3261 14.2347C96.6621 13.852 96.1411 13.3172 95.7676 12.6301C95.3941 11.9431 95.2051 11.1408 95.2051 10.2278C95.2051 9.31485 95.3895 8.51715 95.7584 7.83012C96.1273 7.1477 96.6345 6.61283 97.2846 6.22551C97.9348 5.83819 98.6863 5.64453 99.544 5.64453C100.369 5.64453 101.093 5.81975 101.716 6.17018C102.338 6.52061 102.827 7.01398 103.177 7.65491C103.528 8.29583 103.708 9.05664 103.708 9.93733C103.708 9.99266 103.703 10.0941 103.698 10.2509C103.694 10.4076 103.685 10.5321 103.675 10.629H96.8835C96.948 11.5097 97.2293 12.2013 97.7273 12.7039C98.2253 13.2019 98.8708 13.4555 99.6593 13.4555C100.798 13.4555 101.61 12.9344 102.098 11.8924L103.38 12.6347C103.108 13.2895 102.638 13.8197 101.965 14.2163C101.296 14.6082 100.522 14.8065 99.6408 14.8065ZM96.9111 9.44857H102.029C101.965 8.6647 101.702 8.05606 101.25 7.62724C100.798 7.19842 100.226 6.98171 99.544 6.98171C98.8201 6.98171 98.2299 7.19842 97.7734 7.62724C97.3169 8.05606 97.031 8.6647 96.9111 9.44857Z" fill="white"/>
<path d="M105.396 14.6458V5.80201H106.954V7.57722L107.41 7.09307C108.319 6.12477 109.315 5.64062 110.403 5.64062C111.27 5.64062 111.934 5.88962 112.4 6.39221C112.865 6.89019 113.1 7.60489 113.1 8.53169V14.6458H111.459V8.77146C111.459 8.18126 111.339 7.74783 111.104 7.48039C110.864 7.21296 110.477 7.07924 109.933 7.07924C109.467 7.07924 109.01 7.20374 108.568 7.45734C108.125 7.71094 107.613 8.13976 107.042 8.73918V14.6458H105.396Z" fill="white"/>
<path d="M114.202 14.644L118.767 2.37891H121.658L126.223 14.644H123.166L122.433 12.4169H117.914L117.149 14.644H114.202ZM118.707 10.1253H121.681L120.805 7.47862L120.219 5.14087L119.62 7.47862L118.707 10.1253Z" fill="white"/>
<path d="M127.385 14.644V2.37891H130.327V14.644H127.385Z" fill="white"/>
</svg>
